<?xml version="1.0" standalone="no"?>
<!DOCTYPE svg PUBLIC "-//W3C//DTD SVG 20010904//EN"
 "http://www.w3.org/TR/2001/REC-SVG-20010904/DTD/svg10.dtd">
<svg version="1.0" xmlns="http://www.w3.org/2000/svg"
 width="300.000000pt" height="300.000000pt" viewBox="0 0 300.000000 300.000000"
 preserveAspectRatio="xMidYMid meet">
<metadata>
Created by potrace 1.15, written by Peter Selinger 2001-2017
</metadata>
<g transform="translate(0.000000,300.000000) scale(0.100000,-0.100000)"
fill="#000000" stroke="none">
<path d="M2465 2787 c-3 -7 -9 -98 -13 -202 l-7 -190 -35 -6 c-19 -3 -51 -15
-70 -26 -23 -14 -93 -30 -207 -48 l-172 -28 -42 36 c-24 21 -104 64 -193 103
-182 80 -233 89 -328 54 -101 -36 -300 -138 -334 -171 l-31 -30 -174 27 c-123
19 -182 32 -202 46 -16 11 -43 21 -60 22 -18 2 -35 4 -38 5 -3 0 -9 87 -13
193 -4 106 -10 196 -12 200 -7 11 -92 10 -99 -1 -3 -6 -14 -85 -25 -177 l-19
-168 30 -37 c34 -43 37 -64 9 -56 -26 7 -55 -16 -47 -37 4 -9 18 -21 31 -26
31 -11 33 -25 41 -255 5 -120 11 -182 18 -187 7 -4 35 -8 64 -8 48 0 52 2 57
28 13 63 37 296 33 314 -3 11 0 21 8 24 15 6 319 -42 351 -55 l22 -9 1 -601 2
-600 -23 -6 c-53 -12 -307 -55 -325 -55 -17 0 -20 14 -31 131 -7 73 -15 152
-19 175 l-6 44 -51 0 c-28 0 -57 -4 -64 -9 -10 -6 -16 -58 -23 -196 -10 -196
-18 -227 -60 -240 -30 -10 -21 -49 11 -53 42 -6 43 -18 8 -64 l-33 -44 15
-169 15 -169 35 -8 c19 -4 45 -5 57 -3 26 6 29 22 40 250 l8 160 42 6 c23 3
51 13 61 23 13 11 75 26 192 46 l173 29 34 -29 c40 -35 107 -70 258 -135 136
-58 180 -64 262 -36 100 34 326 145 355 176 l28 28 172 -28 c121 -19 183 -33
207 -48 19 -11 50 -23 70 -26 l36 -6 8 -155 c4 -85 11 -175 15 -200 l7 -45 46
-3 c29 -2 50 2 56 10 6 7 16 88 23 181 l12 167 -32 36 c-32 37 -35 61 -6 56
21 -4 46 15 46 35 0 8 -13 20 -29 26 -40 15 -48 48 -56 224 -4 83 -10 166 -14
185 -6 31 -9 33 -61 40 -30 4 -58 3 -62 0 -7 -7 -37 -239 -40 -312 -1 -39 -2
-40 -37 -40 -46 0 -320 46 -329 55 -4 4 -8 278 -10 610 l-3 603 53 11 c113 23
283 51 305 51 20 0 23 -5 23 -39 0 -54 39 -314 48 -322 4 -4 32 -4 63 -2 56 5
57 6 63 42 3 20 6 105 6 190 0 168 10 218 44 223 15 2 21 10 21 28 0 21 -5 26
-32 28 -36 4 -43 21 -18 42 9 7 14 19 11 27 -3 8 -2 11 4 8 22 -13 26 34 14
140 -10 84 -12 92 -9 35 3 -48 -1 -92 -10 -120 -7 -25 -15 -38 -16 -30 -5 37
-5 46 4 57 5 7 4 20 -2 31 -6 11 -10 39 -10 63 0 24 -3 77 -7 118 -7 72 -6 74
15 68 11 -3 19 -1 15 4 -8 14 -104 11 -109 -4z m-955 -760 c0 -107 12 -468 26
-793 l6 -152 102 -70 c56 -39 108 -77 115 -85 28 -34 -13 -23 -131 34 l-125
61 -128 -61 c-77 -37 -132 -58 -137 -53 -6 6 36 41 105 90 l114 81 6 78 c4 43
9 278 13 523 3 245 8 451 10 458 2 7 8 10 14 7 6 -4 10 -54 10 -118z"/>
</g>
</svg>
